<svg width="256" height="256" viewBox="0 0 256 256" fill="none" xmlns="http://www.w3.org/2000/svg">
<path d="M152.974 178.75C152.974 192.342 147.602 205.378 138.04 214.989C128.478 224.6 115.509 230 101.987 230C88.4643 230 75.4956 224.6 65.9337 214.989C56.3718 205.378 51 192.342 51 178.75V75.9499C51 69.3225 56.3726 63.9499 63 63.9499L64.4934 63.9499C71.1208 63.9499 76.4934 69.3225 76.4934 75.9499V178.75C76.4934 185.546 79.1793 192.064 83.9603 196.87C88.7412 201.675 95.2256 204.375 101.987 204.375C108.748 204.375 115.232 201.675 120.013 196.87C124.794 192.064 127.48 185.546 127.48 178.75V127.5H152.974V178.75Z" fill="#92DCD2"/>
<path d="M201.644 50.4243C183.337 66.9006 152.974 98.5845 152.974 127.5H152.965C152.987 156.407 183.335 188.074 201.636 204.544C207.957 210.232 207.187 219.634 199.758 223.067C195.537 225.018 190.237 224.456 186.445 221.413C170.024 208.232 127.467 169.972 127.468 127.469H127.477C127.497 84.9783 170.037 46.7337 186.454 33.556C190.245 30.5125 195.545 29.9509 199.766 31.9012C207.195 35.3343 207.965 44.7358 201.644 50.4243Z" fill="#55BAAC"/>
<ellipse cx="63.7467" cy="37.8125" rx="12.7467" ry="12.8125" fill="#58D088"/>
</svg>
